<?xml version="1.0" encoding="UTF-8" standalone="no"?>
<svg
   xmlns:dc="http://purl.org/dc/elements/1.1/"
   xmlns:cc="http://creativecommons.org/ns#"
   xmlns:rdf="http://www.w3.org/1999/02/22-rdf-syntax-ns#"
   xmlns:svg="http://www.w3.org/2000/svg"
   xmlns="http://www.w3.org/2000/svg"
   xmlns:sodipodi="http://sodipodi.sourceforge.net/DTD/sodipodi-0.dtd"
   xmlns:inkscape="http://www.inkscape.org/namespaces/inkscape"
   data-v-423bf9ae=""
   viewBox="0 0 244.10918 111.40005"
   class="iconLeft"
   version="1.1"
   id="svg8"
   sodipodi:docname="ubrLogo.svg"
   width="244.10918"
   height="111.40005"
   inkscape:version="1.0.1 (3bc2e813f5, 2020-09-07)">
  <metadata
     id="metadata14">
    <rdf:RDF>
      <cc:Work
         rdf:about="">
        <dc:format>image/svg+xml</dc:format>
        <dc:type
           rdf:resource="http://purl.org/dc/dcmitype/StillImage" />
        <dc:title />
      </cc:Work>
    </rdf:RDF>
  </metadata>
  <defs
     id="defs12" />
  <sodipodi:namedview
     pagecolor="#ffffff"
     bordercolor="#666666"
     borderopacity="1"
     objecttolerance="10"
     gridtolerance="10"
     guidetolerance="10"
     inkscape:pageopacity="0"
     inkscape:pageshadow="2"
     inkscape:window-width="1920"
     inkscape:window-height="1016"
     id="namedview10"
     showgrid="false"
     fit-margin-top="0"
     fit-margin-left="0"
     fit-margin-right="0"
     fit-margin-bottom="0"
     inkscape:zoom="3.28125"
     inkscape:cx="103.93264"
     inkscape:cy="79.946878"
     inkscape:window-x="0"
     inkscape:window-y="27"
     inkscape:window-maximized="1"
     inkscape:current-layer="svg8"
     inkscape:document-rotation="0" />
  <!---->
  <!---->
  <!---->
  <g
     data-v-423bf9ae=""
     id="7637ae68-93d6-4e8d-9fbf-4a4ab737200f"
     fill="#ffffff"
     transform="matrix(9.0350215,0,0,7.5476101,105.6023,5.7335143)"
     style="fill:#2d5151;fill-opacity:1">
    <path
       d="M 1.54,11.13 C 1.4,10.98 1.2,10.89 0.98,10.89 c -0.22,0 -0.42,0.09 -0.56,0.24 V 4.77 c 0,-0.3 0.25,-0.56 0.56,-0.56 0.31,0 0.56,0.26 0.56,0.56 z m 3.29,0 C 4.68,10.98 4.48,10.89 4.27,10.89 c -0.22,0 -0.42,0.09 -0.56,0.24 V 4.77 c 0,-0.3 0.25,-0.56 0.56,-0.56 0.31,0 0.56,0.26 0.56,0.56 z m 0,0.56 c 0,1.27 -0.99,2.31 -2.21,2.31 -1.21,0 -2.2,-1.04 -2.2,-2.31 0,-0.31 0.25,-0.56 0.56,-0.56 0.31,0 0.56,0.25 0.56,0.56 0,0.32 0.11,0.63 0.34,0.85 0.19,0.23 0.46,0.34 0.74,0.34 0.28,0 0.54,-0.11 0.75,-0.34 0.21,-0.22 0.34,-0.53 0.34,-0.85 0,-0.31 0.25,-0.56 0.56,-0.56 0.31,0 0.55,0.25 0.56,0.56 z M 6.23,7.06 C 6.45,7.06 6.64,6.93 6.73,6.75 6.78,6.68 6.79,6.59 6.79,6.5 6.79,6.17 6.9,5.88 7.13,5.64 7.32,5.43 7.59,5.31 7.87,5.31 c 0.28,0 0.54,0.12 0.75,0.33 0.21,0.24 0.34,0.53 0.34,0.86 0,0.09 0.01,0.18 0.06,0.25 0.08,0.18 0.28,0.31 0.5,0.31 0.21,0 0.41,-0.13 0.5,-0.31 C 10.05,6.68 10.08,6.59 10.08,6.5 10.08,5.22 9.09,4.19 7.87,4.19 H 7.85 C 6.89,4.2 6.05,4.87 5.77,5.81 5.71,6.02 5.67,6.26 5.67,6.5 c 0,0.09 0.03,0.18 0.06,0.25 0.09,0.18 0.28,0.31 0.5,0.31 z m 2.73,0.01 c 0,0 0,0.01 0,0.01 0,0.33 -0.13,0.63 -0.34,0.86 C 8.43,8.15 8.18,8.26 7.91,8.27 H 7.87 6.79 V 7.07 C 6.65,7.21 6.45,7.29 6.23,7.29 6.01,7.29 5.81,7.21 5.67,7.07 v 6.37 c 0,0.31 0.25,0.56 0.56,0.56 h 1.64 c 1.22,0 2.21,-1.04 2.21,-2.31 V 10.6 C 10.08,9.9 9.77,9.27 9.31,8.85 9.77,8.41 10.08,7.78 10.08,7.08 9.93,7.21 9.73,7.29 9.52,7.29 9.3,7.29 9.1,7.21 8.96,7.07 Z m 0,4.62 c 0,0.32 -0.13,0.63 -0.34,0.85 -0.21,0.21 -0.47,0.34 -0.75,0.34 H 6.79 V 9.41 h 1.08 0.04 c 0.27,0 0.52,0.12 0.71,0.33 0.21,0.23 0.34,0.54 0.34,0.86 z M 10.92,6.5 c 0,-0.24 0.04,-0.48 0.1,-0.69 C 11.3,4.87 12.14,4.2 13.1,4.19 h 0.02 c 1.22,0 2.21,1.03 2.21,2.31 0,0.09 -0.03,0.18 -0.06,0.25 -0.09,0.18 -0.29,0.31 -0.5,0.31 -0.22,0 -0.42,-0.13 -0.5,-0.31 C 14.22,6.68 14.21,6.59 14.21,6.5 14.21,6.17 14.08,5.88 13.87,5.64 13.66,5.43 13.4,5.31 13.12,5.31 c -0.28,0 -0.55,0.12 -0.74,0.33 -0.23,0.24 -0.34,0.53 -0.34,0.86 0,0.09 -0.01,0.18 -0.06,0.25 -0.09,0.18 -0.28,0.31 -0.5,0.31 -0.22,0 -0.41,-0.13 -0.5,-0.31 C 10.95,6.68 10.92,6.59 10.92,6.5 Z m 4.19,6.66 c 0.15,0.27 0.05,0.62 -0.21,0.77 -0.09,0.04 -0.19,0.07 -0.28,0.07 -0.2,0 -0.38,-0.1 -0.48,-0.28 l -1.69,-2.93 c -0.14,-0.04 -0.28,-0.11 -0.41,-0.18 v 2.83 c 0,0.31 -0.25,0.56 -0.56,0.56 -0.31,0 -0.56,-0.25 -0.56,-0.56 V 7.1 c 0.14,0.14 0.34,0.22 0.56,0.22 0.22,0 0.42,-0.08 0.56,-0.22 v 1.5 c 0,0.32 0.11,0.63 0.34,0.85 0.19,0.22 0.46,0.34 0.74,0.34 0.28,0 0.54,-0.12 0.75,-0.34 0.21,-0.22 0.34,-0.53 0.34,-0.85 V 7.1 c 0.14,0.14 0.34,0.22 0.56,0.22 0.21,0 0.41,-0.08 0.56,-0.22 v 1.5 c 0,1.05 -0.67,1.93 -1.58,2.21 z"
       id="path2"
       style="fill:#2d5151;fill-opacity:1" />
  </g>
  <!---->
  <g
     data-v-423bf9ae=""
     id="73310803-9f08-4083-9a0c-0202dab84841"
     transform="matrix(1.1111112,0,0,1.1111112,-5.8611116,0)"
     stroke="none"
     fill="#2d5151">
    <path
       d="M 60.372,29.167 V 11.444 C 65.45,10.93 69.481,6.83 69.893,1.724 h 3.334 V 0 h -4.992 l -0.027,0.862 c 0,4.915 -3.998,8.912 -8.912,8.912 -4.916,0 -8.912,-3.998 -8.912,-8.912 V 0 h -4.992 v 1.724 h 3.305 c 0.412,5.106 4.443,9.207 9.521,9.72 v 7.067 C 45.554,18.574 34.099,23.133 25.937,31.366 18.376,38.994 14.039,49.408 14.039,59.937 l -0.002,20.445 c -4.926,0.537 -8.762,4.71 -8.762,9.779 0,5.434 4.406,9.838 9.84,9.838 5.434,0 9.838,-4.404 9.838,-9.838 0,-5.068 -3.834,-9.242 -8.76,-9.779 V 59.937 c 0,-9.965 4.109,-19.826 11.275,-27.054 5.494,-5.542 15.281,-12.14 30.75,-12.216 v 8.5 C 39.149,29.737 23.864,45.364 23.864,64.57 23.864,84.137 39.727,100 59.296,100 78.862,100 94.726,84.138 94.726,64.57 94.726,45.364 79.44,29.737 60.372,29.167 Z M 15.114,91.591 a 1.431,1.431 0 0 1 0,-2.86 1.431,1.431 0 0 1 0,2.86 z M 59.296,67.503 c -1.621,0 -2.934,-1.312 -2.934,-2.934 a 2.934,2.934 0 1 1 5.868,0 2.934,2.934 0 0 1 -2.934,2.934 z"
       id="path5" />
  </g>
  <!---->
</svg>
